<svg width="104" height="85" viewBox="0 0 104 85" fill="none" xmlns="http://www.w3.org/2000/svg">
<g filter="url(#filter0_dd_401_2871)">
<path d="M60 38.5C60 59.763 54.1797 77 47 77C39.8203 77 34 59.763 34 38.5C34 17.237 39.8203 0 47 0C54.1797 0 60 17.237 60 38.5Z" fill="#FDFDFF"/>
<path d="M47 0H90V22H47V0Z" fill="#FDFDFF"/>
<path d="M4 57H47V77H4V57Z" fill="#FDFDFF"/>
<path d="M4 0H47V22H4V0Z" fill="#FDFDFF"/>
<path d="M100 57C100 68.0457 91.0457 77 80 77C68.9543 77 60 68.0457 60 57C60 45.9543 68.9543 37 80 37C91.0457 37 100 45.9543 100 57Z" fill="#FDFDFF"/>
</g>
<circle cx="78.5" cy="55.5" r="7" fill="#4ABDAC" stroke="#052F5F"/>
<defs>
<filter id="filter0_dd_401_2871" x="0" y="0" width="104" height="85" filterUnits="userSpaceOnUse" color-interpolation-filters="sRGB">
<feFlood flood-opacity="0" result="BackgroundImageFix"/>
<feColorMatrix in="SourceAlpha" type="matrix" values="0 0 0 0 0 0 0 0 0 0 0 0 0 0 0 0 0 0 127 0" result="hardAlpha"/>
<feOffset dy="4"/>
<feGaussianBlur stdDeviation="2"/>
<feComposite in2="hardAlpha" operator="out"/>
<feColorMatrix type="matrix" values="0 0 0 0 0 0 0 0 0 0 0 0 0 0 0 0 0 0 0.25 0"/>
<feBlend mode="normal" in2="BackgroundImageFix" result="effect1_dropShadow_401_2871"/>
<feColorMatrix in="SourceAlpha" type="matrix" values="0 0 0 0 0 0 0 0 0 0 0 0 0 0 0 0 0 0 127 0" result="hardAlpha"/>
<feOffset dy="4"/>
<feGaussianBlur stdDeviation="2"/>
<feComposite in2="hardAlpha" operator="out"/>
<feColorMatrix type="matrix" values="0 0 0 0 0 0 0 0 0 0 0 0 0 0 0 0 0 0 0.25 0"/>
<feBlend mode="normal" in2="effect1_dropShadow_401_2871" result="effect2_dropShadow_401_2871"/>
<feBlend mode="normal" in="SourceGraphic" in2="effect2_dropShadow_401_2871" result="shape"/>
</filter>
</defs>
</svg>
