<?xml version="1.0" encoding="UTF-8" standalone="no"?>
<!-- Generator: Adobe Illustrator 19.0.0, SVG Export Plug-In . SVG Version: 6.00 Build 0)  -->

<svg
   version="1.1"
   id="Capa_1"
   x="0px"
   y="0px"
   viewBox="0 0 52 52"
   style="enable-background:new 0 0 52 52;"
   xml:space="preserve"
   sodipodi:docname="plus-svgrepo-com.svg"
   inkscape:version="1.2 (dc2aedaf03, 2022-05-15)"
   xmlns:inkscape="http://www.inkscape.org/namespaces/inkscape"
   xmlns:sodipodi="http://sodipodi.sourceforge.net/DTD/sodipodi-0.dtd"
   xmlns="http://www.w3.org/2000/svg"
   xmlns:svg="http://www.w3.org/2000/svg"><defs
   id="defs89" /><sodipodi:namedview
   id="namedview87"
   pagecolor="#ffffff"
   bordercolor="#000000"
   borderopacity="0.25"
   inkscape:showpageshadow="2"
   inkscape:pageopacity="0.0"
   inkscape:pagecheckerboard="0"
   inkscape:deskcolor="#d1d1d1"
   showgrid="false"
   inkscape:zoom="15.653846"
   inkscape:cx="26"
   inkscape:cy="26"
   inkscape:window-width="1920"
   inkscape:window-height="1017"
   inkscape:window-x="-8"
   inkscape:window-y="-8"
   inkscape:window-maximized="1"
   inkscape:current-layer="g54" />
<g
   id="g54">
	<path
   d="M 26,0 C 11.664,0 0,11.663 0,26 0,40.337 11.664,52 26,52 40.336,52 52,40.337 52,26 52,11.663 40.336,0 26,0 Z m 0.127764,48.658477 c -13.233,0 -23.105651,-9.106067 -23.105651,-22.339067 C 3.022113,13.08641 12.767,3.2776413 26,3.2776413 39.233,3.2776413 49.552826,12.767 49.552826,26 c 0,13.233 -10.192062,22.658477 -23.425062,22.658477 z"
   id="path50"
   sodipodi:nodetypes="ssssssssss" />
	<path
   d="M 38.5,25 H 27 V 20.378378 14 c 0,-0.553 -0.448,-1 -1,-1 -0.552,0 -1,0.447 -1,1 V 25 H 13.5 c -0.552,0 -1,0.447 -1,1 0,0.553 0.448,1 1,1 H 25 v 12 c 0,0.553 0.448,1 1,1 0.552,0 1,-0.447 1,-1 V 27 h 11.5 c 0.552,0 1,-0.447 1,-1 0,-0.553 -0.448,-1 -1,-1 z"
   id="path52"
   sodipodi:nodetypes="sccssscssscssscsss" />
</g>
<g
   id="g56">
</g>
<g
   id="g58">
</g>
<g
   id="g60">
</g>
<g
   id="g62">
</g>
<g
   id="g64">
</g>
<g
   id="g66">
</g>
<g
   id="g68">
</g>
<g
   id="g70">
</g>
<g
   id="g72">
</g>
<g
   id="g74">
</g>
<g
   id="g76">
</g>
<g
   id="g78">
</g>
<g
   id="g80">
</g>
<g
   id="g82">
</g>
<g
   id="g84">
</g>
</svg>
